<?xml version="1.0" encoding="UTF-8"?>
<svg width="54px" height="48px" viewBox="0 0 54 48" version="1.1" xmlns="http://www.w3.org/2000/svg" xmlns:xlink="http://www.w3.org/1999/xlink">
    <!-- Generator: Sketch 63.1 (92452) - https://sketch.com -->
    <title>Group 2</title>
    <desc>Created with Sketch.</desc>
    <defs>
        <polygon id="path-1" points="0 0.0487804878 53.8983321 0.0487804878 53.8983321 39.9212358 0 39.9212358"></polygon>
    </defs>
    <g id="Page-1" stroke="none" stroke-width="1" fill="none" fill-rule="evenodd">
        <g id="Desktop" transform="translate(-512.000000, -3697.000000)">
            <g id="design" transform="translate(0.000000, -1.000000)">
                <g id="footer" transform="translate(0.000000, 3693.000000)">
                    <g id="Group-2" transform="translate(512.000000, 5.000000)">
                        <g id="Group">
                            <g id="logo">
                                <g id="Group-3">
                                    <mask id="mask-2" fill="white">
                                        <use xlink:href="#path-1"></use>
                                    </mask>
                                    <g id="Clip-2"></g>
                                    <path d="M26.9491179,0.0487154472 C12.0653679,0.0487154472 -9.64285714e-05,12.2561951 -9.64285714e-05,27.3144065 C-9.64285714e-05,31.8643252 1.10754643,36.1498537 3.05540357,39.9212358 L4.84383214,39.9212358 C2.76418929,36.1963577 1.57168929,31.8974959 1.57168929,27.3144065 C1.57168929,13.1342439 12.9335464,1.63863415 26.9491179,1.63863415 C40.9646893,1.63863415 52.3268679,13.1342439 52.3268679,27.3144065 C52.3268679,31.8974959 51.1340464,36.1963577 49.0544036,39.9212358 L50.8428321,39.9212358 C52.7906893,36.1498537 53.8983321,31.8643252 53.8983321,27.3144065 C53.8983321,12.2561951 41.8328679,0.0487154472 26.9491179,0.0487154472" id="Fill-1" fill="#FFFFFF" mask="url(#mask-2)"></path>
                                </g>
                                <path d="M6.30689515,40 C4.0677462,36.3740997 2.77131235,32.1052522 2.77131235,27.5374343 C2.77131235,14.4338503 13.4159363,3.77282245 26.5,3.77282245 C39.5837427,3.77282245 50.2283667,14.4338503 50.2283667,27.5374343 C50.2283667,32.1052522 48.9322538,36.3740997 46.6931048,40 L47.5928088,40 C49.7539598,36.3445241 51,32.0849993 51,27.5374343 C51,14.0075763 40.0090398,3 26.5,3 C12.9906392,3 2,14.0075763 2,27.5374343 C2,32.0849993 3.24571919,36.3445241 5.40687026,40 L6.30689515,40 Z" id="Fill-4" fill="#FFFFFF"></path>
                                <path d="M41,35.8760282 L38.3314271,34 L38.3314271,35.4295755 C34.6443025,35.4691229 24.2208553,35.408875 22.8701041,35.4280307 C20.93986,35.4549106 19.0099388,35.4879697 17.0800175,35.5213378 L15.466154,34.050979 L13,34.050979 L14.380775,35.5667555 C14.2542228,35.5689182 14.1283163,35.571081 14.0017641,35.5732437 C13.7851403,35.5763333 13.7848174,35.9829297 14.0017641,35.9860194 C14.1325132,35.9881821 14.2639079,35.9906538 14.394657,35.9928166 L13,37.6420654 L15.7341089,37.6420654 L17.136514,36.0388522 C19.0477107,36.0719113 20.9589074,36.1043525 22.8701041,36.1312323 C23.340478,36.1380296 25.0024443,36.1210365 27.0953984,36.1021897 L27.0953984,38.5964546 C27.0953984,39.1340516 27.9683504,39.1349785 27.9683504,38.5964546 L27.9683504,36.0944657 C31.7055148,36.0623334 36.3995688,36.031746 38.3314271,36.1074421 L38.3314271,37.559881 L41,35.8760282 Z" id="Fill-8" fill="#FFFFFF"></path>
                                <path d="M15.9330849,31.124939 C16.25716,30.607152 17.0558317,29.0701044 16.3145787,27.4547526 C15.4545956,25.5803441 14.5819608,28.6932651 15.6064145,30.9206954 C14.889816,30.4567426 14.2192821,29.9392818 13.5977326,29.3983298 C13.9341349,28.8488949 14.6815515,27.3470842 13.9565185,25.7666431 C13.1267045,23.958467 12.2852121,26.7904714 13.1458441,28.992779 C12.3270596,28.2368165 11.6046219,27.4524687 10.9895604,26.7147773 C11.3136355,26.196664 12.1119828,24.6599427 11.3710542,23.0449171 C10.5610286,21.2794821 9.74029775,23.9382384 10.5029611,26.1144445 C9.95634785,25.4188416 9.51775967,24.7927337 9.19692853,24.306921 C9.18070856,23.5398654 8.96855126,22.1411554 7.74167222,21.2458765 C6.05317264,20.0138894 6.05025304,23.7620537 8.80862229,24.7450986 C9.05224634,25.1134549 9.35426231,25.5483699 9.71272379,26.026026 C8.98606884,25.7098725 7.77995136,25.3973079 6.55501872,26.0146066 C4.69101899,26.9536053 7.94085353,27.7408895 10.1243868,26.5617577 C10.5117198,27.0521382 10.950308,27.5725353 11.4378805,28.099784 C10.6538068,28.021806 9.37177988,28.0877121 8.37879291,29.0900068 C6.92872698,30.5549492 10.1435264,30.2929561 11.8628439,28.5467709 C12.4068619,29.1066464 13.0053791,29.6652169 13.6538537,30.1960546 C12.8937856,30.1591863 11.4845941,30.2740326 10.5100979,31.450228 C9.16935457,33.0685162 12.4976938,32.4694886 14.0204252,30.4883905 C15.3673321,31.5370152 16.9147179,32.4486074 18.6389014,32.9876018 C18.6664754,32.9960848 18.6943737,33 18.7216233,33 C18.8406779,33 18.950325,32.9230008 18.9873065,32.8029343 C19.0330468,32.6554612 18.9512982,32.4985264 18.8043452,32.4525226 C17.7850818,32.133759 16.8261568,31.6717638 15.9330849,31.124939 Z" id="Fill-10" fill="#FFFFFF"></path>
                                <path d="M22.6408345,21.5937043 C22.8901231,21.205364 23.5044859,20.0525783 22.9342913,18.8410645 C22.2727658,17.4352581 21.6015083,19.7699489 22.3895497,21.4405215 C21.83832,21.0925569 21.3225247,20.7044614 20.8444097,20.2987474 C21.1031807,19.8866712 21.6781165,18.7603132 21.1203989,17.5749823 C20.4820804,16.2188502 19.8347785,18.3428535 20.4968031,19.9945842 C19.866969,19.4276124 19.3112476,18.8393516 18.8381234,18.2860829 C19.0874119,17.897498 19.7015252,16.744957 19.1315802,15.5336879 C18.5084835,14.2096116 17.8771521,16.2036788 18.4638162,17.8358334 C18.0433445,17.3141312 17.705969,16.8445503 17.4591758,16.4801907 C17.4466989,15.904899 17.283501,14.8558665 16.3397479,14.1844074 C15.040902,13.260417 15.0386562,16.0715403 17.1604787,16.808824 C17.3478818,17.0850912 17.5802018,17.4112774 17.8559414,17.7695195 C17.296976,17.5324043 16.3691934,17.2979809 15.4269375,17.7609549 C13.9930915,18.465204 16.4929643,19.0556671 18.1726052,18.1713182 C18.4705537,18.5391036 18.8079292,18.9294015 19.182985,19.324838 C18.5798514,19.2663545 17.5936768,19.3157841 16.8298407,20.0675051 C15.7144054,21.1662119 18.187328,20.9697171 19.5098799,19.6600782 C19.9283553,20.0799848 20.3887531,20.4989127 20.8875798,20.8970409 C20.302912,20.8693898 19.2189185,20.9555245 18.469306,21.837671 C17.4379651,23.0513872 19.998226,22.6021164 21.1695579,21.1162929 C22.2056401,21.9027614 23.3959368,22.5864556 24.7222318,22.9907014 C24.7434426,22.9970636 24.7649029,23 24.7858641,23 C24.8774446,23 24.9617884,22.9422506 24.9902358,22.8522007 C25.0254206,22.7415959 24.962537,22.6238948 24.8494963,22.589392 C24.0654476,22.3503193 23.3278129,22.0038229 22.6408345,21.5937043 Z" id="Fill-10-Copy" fill="#FFFFFF"></path>
                                <path d="M46.4449544,26.0144758 C45.2203607,25.3971655 44.0139331,25.7097359 43.2876112,26.0258954 C43.645744,25.5482304 43.9480808,25.1133073 44.1913775,24.744944 C46.9500385,23.762207 46.9467945,20.0136462 45.2583149,21.2459827 C44.0317749,22.140952 43.8192957,23.5396882 43.8030759,24.3070844 C43.4822486,24.7929063 43.04399,25.4190259 42.4967345,26.1146419 C43.2600375,23.9383949 42.438992,21.2792626 41.628976,23.0447307 C40.8877319,24.6601128 41.686394,26.1968629 42.0104653,26.7146596 C41.3957355,27.4523649 40.6729819,28.2370536 39.8545316,28.9927039 C40.714829,26.7906814 39.8730222,23.9582976 39.0435424,25.7665076 C38.3181936,27.3469784 39.0659257,28.8491434 39.402324,29.3982624 C38.7807819,29.9392245 38.1105804,30.4566949 37.3939903,30.9206564 C38.4181075,28.6931845 37.5454831,25.5802052 36.6851857,27.4546488 C35.9439416,29.0700309 36.7429282,30.6071072 37.0669995,31.1249039 C36.1739381,31.6720652 35.2150245,32.1340691 34.1957732,32.4525124 C34.048822,32.498517 33.9667499,32.6554548 34.0128141,32.8032568 C34.0494708,32.9233256 34.1594409,33 34.2784941,33 C34.3057434,33 34.3336414,32.9960847 34.361215,32.9876016 C36.0850537,32.4489234 37.6327455,31.5373141 38.9796364,30.4886698 C40.5026742,32.4694786 43.8306495,33.0685175 42.4899222,31.450199 C41.5157619,30.2743078 40.1062627,30.1591331 39.3462036,30.1960021 C39.9946705,29.6651545 40.5931806,29.1068998 41.1375165,28.5470138 C42.8564893,30.2929054 46.0715749,30.5549034 44.6212018,29.0902598 C43.6282266,28.0876201 42.3462149,28.0217128 41.5621505,28.1000185 C42.0497172,27.5724336 42.4886246,27.052353 42.8756286,26.5619634 C45.0594604,27.740791 48.308932,26.9538183 46.4449544,26.0144758" id="Fill-12" fill="#FFFFFF"></path>
                                <path d="M38.5730418,17.7608568 C37.6310467,17.2978742 36.7030255,17.532302 36.1443163,17.7694215 C36.4198031,17.4111728 36.6523698,17.0849804 36.8395212,16.808708 C38.961568,16.0716553 38.9590727,13.2602346 37.6602423,14.184487 C36.7167499,14.855714 36.5533044,15.9047662 36.5408276,16.4803133 C36.2940374,16.8446797 35.9569154,17.3142694 35.5359496,17.8359814 C36.1231058,16.2037962 35.4915323,14.209447 34.8684431,15.533548 C34.2982553,16.7450846 34.9126108,17.8976472 35.1618964,18.2859947 C34.6890273,18.8392736 34.133063,19.4277902 33.5034858,19.994528 C34.165253,18.343011 33.5177093,16.2187232 32.879648,17.5748807 C32.3216874,18.7602338 32.8968659,19.8868576 33.1556339,20.2986968 C32.6775245,20.7044184 32.1619849,21.0925212 31.6107618,21.4404923 C32.3985442,19.7698884 31.7272947,17.4351539 31.0655275,18.8409866 C30.4953397,20.0525231 31.1099447,21.2053304 31.3592304,21.5936779 C30.6722601,22.0040489 29.9346342,22.3505518 29.1505948,22.5893843 C29.0375554,22.6238878 28.974423,22.7415911 29.009857,22.8524426 C29.0380544,22.9424942 29.1226469,23 29.2142263,23 C29.2351872,23 29.2566472,22.9970635 29.2778577,22.9907012 C30.6038875,22.5866925 31.7944196,21.9029856 32.8304896,21.1165023 C34.0020571,22.602109 36.5620381,23.0513881 35.5307094,21.8376492 C34.7813553,20.9557309 33.6971251,20.8693499 33.1124643,20.8970016 C33.611285,20.4988658 34.0716774,20.0801749 34.4903973,19.6602603 C35.8126841,20.9696791 38.2858269,21.1661775 37.1701552,20.0676949 C36.4063282,19.3157151 35.4201653,19.2662846 34.8170388,19.3250139 C35.1920902,18.9293252 35.5297112,18.5392648 35.8274066,18.1714725 C37.5072772,19.0555932 40.0068708,18.4653637 38.5730418,17.7608568" id="Fill-12-Copy" fill="#FFFFFF"></path>
                                <path d="M50.3428308,40 C50.5724712,39.6713806 50.7940934,39.3389262 51,39 L2,39 C2.20526516,39.3389262 2.42720811,39.6713806 2.65652777,40 L50.3428308,40 Z" id="Fill-14" fill="#FFFFFF"></path>
                                <path d="M34.4505051,43 L34,43 L34,44 L34.3134199,44 C34.7468975,44 35,43.8130502 35,43.4826515 C35,43.2019679 34.7910534,43 34.4505051,43" id="Fill-16" fill="#FFFFFF"></path>
                                <polygon id="Fill-18" fill="#FFFFFF" points="30 44 31 44 30.512628 43"></polygon>
                                <path d="M41.3855112,46.254533 L39.569541,46.254533 L39.569541,45.7026324 L40.044832,45.5077435 L40.044832,43.0656598 L39.8805299,43.494347 L39.1916142,45.020692 L38.5337654,45.0531166 L37.8323589,43.5141431 L37.7292297,43.1762447 L37.7292297,45.5077435 L38.1984354,45.7026324 L38.1984354,46.254533 L36.4612533,46.254533 L36.4612533,45.7026324 L36.9186088,45.5077435 L36.9186088,42.4553949 L36.4612533,42.260506 L36.4612533,41.7086053 L38.0338131,41.6761807 L38.9478834,43.8387303 L39.9048709,41.7086053 L41.3672554,41.6761807 L41.3672554,42.260506 L40.9281557,42.4553949 L40.9281557,45.5077435 L41.3855112,45.7026324 L41.3855112,46.254533 Z M36.186776,46.254533 L35.0594012,46.254533 L34.5475986,45.0531166 C34.3400591,44.5595802 34.2856121,44.4554802 33.9621324,44.4554802 L33.7488279,44.4554802 L33.7488279,45.5077435 L34.1879276,45.7026324 L34.1879276,46.254533 L32.3476163,46.254533 L32.3476163,45.7026324 L32.8043312,45.5077435 L32.8043312,42.4553949 L32.3476163,42.260506 L32.3476163,41.7086053 L33.7488279,41.6761807 L34.2125889,41.6761807 C35.2121732,41.6761807 35.7969989,42.1178378 35.7969989,43.0011519 C35.7969989,43.6114169 35.5222013,44.0076795 35.1080832,44.2281667 C35.1750211,44.312812 35.2666203,44.4363667 35.3639845,44.6507104 L35.7726579,45.5401681 L36.186776,45.7026324 L36.186776,46.254533 Z M32.1038856,46.254533 L30.1658898,46.254533 L30.1658898,45.7026324 L30.6226047,45.5271983 L30.4765585,45.0531166 L29.1237087,45.0531166 L28.9709366,45.5210547 L29.4465478,45.7026324 L29.4465478,46.254533 L27.6062365,46.254533 L27.6062365,45.7026324 L28.0507809,45.5210547 L29.3914602,41.6956355 L30.3667035,41.6761807 L31.6772767,45.5210547 L32.1038856,45.7026324 L32.1038856,46.254533 Z M27.3439297,44.3063271 L26.0823589,44.3063271 L26.0823589,45.5077435 L26.6434841,45.7026324 L26.6434841,46.254533 L24.6811473,46.254533 L24.6811473,45.7026324 L25.1378622,45.5077435 L25.1378622,42.4553949 L24.6811473,42.260506 L24.6811473,41.7086053 L26.0823589,41.6761807 L27.7887944,41.6761807 L27.7887944,42.9100218 L27.2219042,42.9100218 L27.0700929,42.4553949 L26.0823589,42.4553949 L26.0823589,43.5919621 L27.3439297,43.5919621 L27.3439297,44.3063271 Z M22.6393818,46.254533 L19.4577507,46.254533 L19.4577507,45.7026324 L19.9151062,45.5077435 L19.9151062,42.4553949 L19.4577507,42.260506 L19.4577507,41.7086053 L20.8596029,41.6761807 L22.5660384,41.6761807 L22.5660384,42.9294765 L22.017404,42.9294765 L21.8649522,42.4553949 L20.8596029,42.4553949 L20.8596029,43.5271129 L22.0907474,43.5271129 L22.0907474,44.2414779 L20.8596029,44.2414779 L20.8596029,45.4753189 L21.9504661,45.4753189 L22.0907474,44.9425317 L22.6393818,44.9425317 L22.6393818,46.254533 Z M18.9699689,42.260506 L18.5126135,42.4553949 L18.5126135,45.5077435 L18.9699689,45.7026324 L18.9699689,46.254533 L17.0806553,46.254533 L17.0806553,45.7026324 L17.5681168,45.5077435 L17.5681168,44.2739025 L15.9347044,44.2739025 L15.9347044,45.5077435 L16.4228064,45.7026324 L16.4228064,46.254533 L14.5334928,46.254533 L14.5334928,45.7026324 L14.9902077,45.5077435 L14.9902077,42.4553949 L14.5334928,42.260506 L14.5334928,41.7086053 L16.4228064,41.6761807 L16.4228064,42.260506 L15.9347044,42.4553949 L15.9347044,43.494347 L17.5681168,43.494347 L17.5681168,42.4553949 L17.0806553,42.260506 L17.0806553,41.7086053 L18.9699689,41.6761807 L18.9699689,42.260506 Z M14.2590155,43.072486 L13.6921253,43.072486 L13.540314,42.4553949 L12.960933,42.4553949 L12.960933,45.5077435 L13.540314,45.7026324 L13.540314,46.254533 L11.4376959,46.254533 L11.4376959,45.7026324 L12.0164363,45.5077435 L12.0164363,42.4553949 L11.4376959,42.4553949 L11.2852441,43.072486 L10.7247595,43.072486 L10.7247595,41.6761807 L14.2590155,41.6761807 L14.2590155,43.072486 Z M3,40 C4.58697222,43.0520073 6.68222395,45.7609966 9.16404994,48 L43.8362703,48 C46.3177761,45.7609966 48.4130278,43.0520073 50,40 L3,40 Z" id="Fill-20" fill="#FFFFFF"></path>
                            </g>
                            <rect id="Rectangle" fill="#FFFFFF" x="9" y="41" width="33" height="6"></rect>
                        </g>
                        <text id="#GOVEGAN" font-family="Montserrat-Bold, Montserrat" font-size="5" font-weight="bold" fill="#BBD4B5">
                            <tspan x="12.3575" y="46">#GOVEGAN</tspan>
                        </text>
                    </g>
                </g>
            </g>
        </g>
    </g>
</svg>